<?xml version="1.0" encoding="utf-8"?>
<!-- Generator: Adobe Illustrator 24.0.3, SVG Export Plug-In . SVG Version: 6.00 Build 0)  -->
<svg version="1.1" id="Capa_1" xmlns="http://www.w3.org/2000/svg" xmlns:xlink="http://www.w3.org/1999/xlink" x="0px" y="0px"
	 viewBox="0 0 556.9 109" style="enable-background:new 0 0 556.9 109;" xml:space="preserve">
<style type="text/css">
	.st0{fill:#FFFFFF;}
</style>
<title>logo_blanco</title>
<g>
	<path class="st0" d="M81.7,90.8c0,2.8-0.5,4.8-1.6,6.2c-1.1,1.3-2.7,2.7-5,4c-1.3,0.8-3,1.5-4.9,2.2c-1.9,0.7-4.1,1.2-6.4,1.7
		c-2.4,0.5-4.8,0.9-7.3,1.2c-2.5,0.3-5.1,0.4-7.6,0.4c-6.9,0-13.3-0.9-19.2-2.7c-5.9-1.8-11.1-4.5-15.5-8.3
		C9.7,91.8,6.2,87,3.7,81.2C1.2,75.5,0,68.6,0,60.5c0-7.6,1.3-14.3,3.8-20.1c2.5-5.8,6-10.7,10.4-14.5c4.4-3.9,9.5-6.8,15.4-8.8
		c5.9-2,12.3-3,19.1-3c8.9,0,16,1.4,21.3,4.2c5.3,2.8,7.9,6.3,7.9,10.7c0,2.2-0.6,4.2-1.7,5.8c-1.2,1.7-2.5,3-4,4
		c-2.4-1.5-5.4-3-9-4.3c-3.6-1.3-7.8-2-12.7-2c-4,0-7.7,0.6-11,1.9c-3.3,1.3-6.2,3.1-8.6,5.5c-2.4,2.4-4.3,5.3-5.6,8.8
		c-1.3,3.5-2,7.3-2,11.7c0,4.7,0.6,8.8,1.9,12.3c1.3,3.5,3.1,6.4,5.4,8.7c2.3,2.3,5.1,4,8.3,5.2c3.2,1.2,6.7,1.7,10.4,1.7
		c2.3,0,4.4-0.2,6.3-0.7c1.9-0.5,3.3-1,4.4-1.4V69.9H43.4c-0.6-1-1.1-2.2-1.6-3.7C41.3,64.6,41,63,41,61.2c0-3.1,0.7-5.3,2.2-6.8
		c1.4-1.4,3.3-2.2,5.6-2.2H73c2.7,0,4.8,0.7,6.3,2.2c1.5,1.5,2.3,3.6,2.3,6.3V90.8z"/>
	<path class="st0" d="M111.2,78.5c1.3,4,3.7,6.9,7.1,8.6c3.4,1.7,7.2,2.5,11.7,2.5c4,0,7.8-0.6,11.4-1.7c3.6-1.1,6.4-2.3,8.6-3.7
		c1.4,1,2.6,2.2,3.6,3.7c1,1.5,1.4,3.2,1.4,5c0,2.2-0.7,4.1-2,5.8c-1.3,1.6-3.2,3-5.5,4.1c-2.4,1.1-5.1,1.9-8.4,2.4
		c-3.2,0.5-6.7,0.8-10.6,0.8c-5.7,0-10.9-0.8-15.7-2.4c-4.8-1.6-8.9-3.9-12.4-7.1c-3.5-3.1-6.2-7-8.1-11.7c-2-4.7-3-10.2-3-16.6
		c0-6.1,1-11.5,3-16c2-4.5,4.6-8.3,7.9-11.2c3.3-3,7.1-5.2,11.4-6.6c4.3-1.4,8.7-2.1,13.2-2.1c4.9,0,9.4,0.7,13.5,2.2
		c4.1,1.5,7.6,3.6,10.5,6.3c2.9,2.7,5.2,5.9,6.8,9.6c1.6,3.7,2.4,7.8,2.4,12.2c0,3.1-0.8,5.4-2.4,6.9c-1.6,1.5-3.9,2.5-6.9,3
		L111.2,78.5z M124.9,48.8c-4.1,0-7.6,1.3-10.3,3.8c-2.7,2.5-4.3,6.2-4.8,11l27.5-4.5c-0.2-2.5-1.3-4.8-3.3-7.1
		C131.9,49.9,128.9,48.8,124.9,48.8z"/>
	<path class="st0" d="M222.5,83.7c0,7.1-2.6,12.7-7.9,16.6c-5.3,4-13.1,6-23.3,6c-4,0-7.7-0.3-11-0.9c-3.3-0.6-6.2-1.4-8.6-2.6
		c-2.4-1.2-4.3-2.6-5.6-4.3c-1.3-1.7-2-3.7-2-6c0-2.1,0.4-3.9,1.3-5.4c0.9-1.5,2-2.7,3.3-3.7c2.8,1.6,6,3.1,9.5,4.3
		c3.6,1.2,7.7,1.9,12.4,1.9c6.8,0,10.2-1.9,10.2-5.8c0-1.6-0.6-2.9-1.8-3.7c-1.2-0.9-3.2-1.6-6.1-2.3l-5.8-1.3
		c-7.9-1.6-13.7-4.2-17.6-7.6c-3.8-3.4-5.8-8.2-5.8-14.3c0-6.8,2.8-12.2,8.3-16.2c5.5-4,12.9-6,22.3-6c3.5,0,6.7,0.3,9.8,0.8
		c3.1,0.5,5.7,1.3,7.9,2.4c2.2,1.1,4,2.4,5.3,4c1.3,1.6,1.9,3.4,1.9,5.5c0,1.9-0.4,3.6-1.2,5.1c-0.8,1.5-1.8,2.7-3,3.7
		c-0.8-0.5-1.9-1-3.4-1.6c-1.5-0.6-3.1-1.1-4.8-1.6c-1.7-0.5-3.6-0.9-5.5-1.2c-1.9-0.3-3.7-0.4-5.3-0.4c-3.4,0-6,0.5-7.8,1.4
		c-1.9,0.9-2.8,2.3-2.8,4.1c0,1.3,0.5,2.4,1.6,3.2c1.1,0.8,3,1.5,5.8,2.2l5.5,1.3c8.7,1.9,15,4.7,18.7,8.4
		C220.6,73.2,222.5,77.9,222.5,83.7z"/>
	<path class="st0" d="M254.9,86.9c1.7,1.2,4.1,1.8,7.2,1.8c1.4,0,3-0.2,4.6-0.5c1.6-0.3,3-0.7,4.2-1.2c0.9,1,1.6,2.1,2.2,3.3
		c0.6,1.2,0.9,2.7,0.9,4.3c0,3.4-1.3,6.1-4,8.3c-2.6,2.2-7.2,3.2-13.8,3.2c-8.1,0-14.4-1.8-18.9-5.5c-4.5-3.7-6.8-9.7-6.8-18.1V17.9
		c1.1-0.3,2.4-0.6,4.2-0.9c1.7-0.3,3.6-0.5,5.6-0.5c4.2,0,7.3,0.7,9.1,2.2c1.9,1.5,2.8,4.2,2.8,8.1v9.4h19.9c0.5,1,1,2.2,1.4,3.7
		c0.5,1.5,0.7,3,0.7,4.7c0,3.1-0.7,5.3-2.1,6.6c-1.4,1.3-3.2,2-5.4,2h-14.5v27.9C252.3,83.8,253.2,85.7,254.9,86.9z"/>
	<path class="st0" d="M281.1,14.9c0-3.3,1.1-6,3.4-8.4c2.3-2.3,5.2-3.5,8.9-3.5c3.6,0,6.6,1.2,8.9,3.5c2.3,2.3,3.4,5.1,3.4,8.4
		c0,3.4-1.1,6.2-3.4,8.5c-2.3,2.3-5.2,3.5-8.9,3.5c-3.7,0-6.6-1.2-8.9-3.5C282.3,21,281.1,18.2,281.1,14.9z M304.3,103.9
		c-1,0.3-2.3,0.6-4,0.8c-1.7,0.2-3.7,0.4-5.8,0.4c-4.3,0-7.4-0.7-9.3-2.1c-1.9-1.4-2.8-4.1-2.8-8.1V35.6c1-0.3,2.3-0.6,4-0.9
		c1.7-0.3,3.6-0.4,5.8-0.4c4.3,0,7.4,0.7,9.3,2.2c1.9,1.4,2.8,4.2,2.8,8.2V103.9z"/>
	<path class="st0" d="M386.5,69.3c0,5.7-0.9,10.8-2.6,15.3c-1.7,4.6-4.2,8.4-7.4,11.6c-3.2,3.2-7.1,5.6-11.6,7.3
		c-4.5,1.7-9.6,2.6-15.1,2.6c-5.6,0-10.6-0.8-15.2-2.5c-4.6-1.7-8.5-4.1-11.7-7.3c-3.2-3.2-5.7-7-7.4-11.6
		c-1.7-4.6-2.6-9.7-2.6-15.5c0-5.6,0.9-10.6,2.7-15.2c1.8-4.6,4.3-8.4,7.5-11.6c3.2-3.2,7.1-5.6,11.7-7.3c4.6-1.7,9.6-2.6,15.1-2.6
		s10.5,0.9,15,2.6c4.5,1.7,8.4,4.2,11.6,7.4c3.2,3.2,5.7,7.1,7.5,11.6C385.7,58.7,386.5,63.7,386.5,69.3z M349.8,49.8
		c-4.5,0-8,1.7-10.5,5c-2.5,3.4-3.7,8.2-3.7,14.4c0,6.4,1.2,11.3,3.7,14.6c2.4,3.3,6,5,10.6,5s8.1-1.7,10.6-5
		c2.4-3.4,3.7-8.2,3.7-14.5c0-6.1-1.2-10.9-3.7-14.3C357.8,51.6,354.3,49.8,349.8,49.8z"/>
</g>
<path class="st0" d="M547.8,60.3h-47.9v-1.6c0-1.5-1.2-2.8-2.8-2.8s-2.8,1.2-2.8,2.8v1.6h-30.1c-0.4-2.1-1-4.2-1.8-6.1
	c-1.8-4.5-4.3-8.4-7.5-11.6c-3.2-3.2-7.1-5.7-11.6-7.4c-4.5-1.7-9.5-2.6-15-2.6s-10.5,0.9-15,2.6c-4.6,1.7-8.5,4.2-11.7,7.3
	c-3.2,3.2-5.7,7-7.5,11.6c-1.8,4.6-2.7,9.6-2.7,15.2c0,5.8,0.9,10.9,2.6,15.5c1.7,4.6,4.2,8.4,7.4,11.6c3.2,3.2,7.1,5.6,11.7,7.3
	c4.6,1.7,9.6,2.5,15.2,2.5c5.6,0,10.6-0.9,15.1-2.6c4.5-1.7,8.4-4.2,11.6-7.3c3.2-3.2,5.7-7,7.4-11.6c0.7-1.9,1.3-4,1.7-6.2h30.1
	v1.6c0,1.5,1.2,2.8,2.8,2.8s2.8-1.2,2.8-2.8v-1.6h13.5v18h-2.4c-2.6,0-4.8,2.1-4.8,4.8c0,2.6,2.1,4.8,4.8,4.8h26.1
	c2.6,0,4.8-2.1,4.8-4.8c0-2.6-2.1-4.8-4.8-4.8h-2.4v-18h13.1c5,0,9.1-4.1,9.1-9.1C556.9,64.3,552.8,60.3,547.8,60.3z M438.9,83.8
	c-2.4,3.4-6,5-10.6,5c-4.6,0-8.1-1.7-10.6-5c-2.4-3.3-3.7-8.2-3.7-14.6c0-6.2,1.2-11,3.7-14.4c2.5-3.4,6-5,10.5-5
	c4.5,0,8,1.7,10.5,5.1c2.5,3.4,3.7,8.2,3.7,14.3C442.6,75.6,441.3,80.5,438.9,83.8z"/>
</svg>
